<?xml version="1.0" encoding="utf-8"?>
<!-- Generator: Adobe Illustrator 25.0.0, SVG Export Plug-In . SVG Version: 6.00 Build 0)  -->
<svg version="1.1" xmlns="http://www.w3.org/2000/svg" xmlns:xlink="http://www.w3.org/1999/xlink" x="0px" y="0px"
	 viewBox="0 0 540 198" style="enable-background:new 0 0 540 198;" xml:space="preserve">
<style type="text/css">
	.st0{fill:#101820;}
</style>
<g id="Guides_and_Specs">
</g>
<g id="Logo_x5F_AllStarCode">
	<g id="Black_Logo">
		<g id="Word_Mark_6_">
			<path class="st0" d="M78,143.9L51.9,78H40.5l-25.7,65.8h10.3l6.4-17.1h29.6l6.5,17.1H78z M36,114.5c2.5-6.7,5.9-15.6,10.2-27
				c3.5,9.9,6.9,18.9,10.3,27l1.4,3.6H34.6L36,114.5z"/>
			<path class="st0" d="M88.6,143.9V78h-9.2v65.8H88.6z"/>
			<path class="st0" d="M104.5,143.9V78h-9.2v65.8H104.5z"/>
			<path class="st0" d="M136.2,145.3c8,0,14.2-1.8,18.8-5.3s6.8-8.3,6.8-14.4c0-5.1-1.7-9.2-5-12.2c-3.3-3-8.7-5.3-16.2-6.9
				l-5.7-1.2c-5.5-1.1-9.2-2.6-11.3-4.3c-2-1.5-3.1-3.8-3.1-6.8c0-3,1.1-5.2,3.4-6.8c2.2-1.6,5.5-2.4,9.9-2.4c5.5,0,9.5,1,12,3.1
				c2.5,2,3.9,5.1,4.3,9.3h9.8c-0.2-6.5-2.4-11.6-6.8-15.3c-4.3-3.7-10.8-5.5-19.4-5.5c-7.2,0-12.9,1.7-17,4.9
				c-4.3,3.2-6.3,7.6-6.3,12.9c0,5.5,1.7,9.7,5.2,12.8c3.4,3.1,8.5,5.4,15.4,6.7l5.6,1.2c5.5,1.3,9.4,2.7,11.7,4.3
				c2.1,1.6,3.2,3.8,3.2,6.7c0,3.6-1.4,6.4-4,8.2c-2.6,1.8-6.4,2.8-11.2,2.8c-11.8,0-17.8-4.9-17.9-14.8h-9.9
				c0,7.6,2.5,13.4,7.3,17.3C120.6,143.4,127.5,145.3,136.2,145.3z"/>
			<path class="st0" d="M187.2,96.1h-9.6V82.4h-9.2v13.7h-7.7v7.6h7.7v29.5c0,3.9,1,6.7,3.2,8.3c2.1,1.8,5.5,2.6,10,2.6
				c1.7,0,3.6-0.1,5.6-0.3v-7.4H183c-2,0-3.4-0.3-4.3-0.9c-0.8-0.6-1.2-1.7-1.2-3.1v-28.7h9.6V96.1z"/>
			<path class="st0" d="M231.6,136.7c-1.8,0-2.6-0.7-2.6-2.4v-25.2c0-9.3-6.3-14.1-18.9-14.1c-12.9,0-19.6,5.4-20.3,16h9.2
				c0.2-3.1,1.2-5.4,2.9-6.7c1.7-1.3,4.3-1.9,8.2-1.9c3.5,0,6,0.6,7.5,1.7c1.5,1.1,2.3,2.8,2.3,5.2c0,1.8-0.6,3.2-1.8,4.2
				c-1.1,0.9-3,1.6-5.4,1.8l-7,0.7c-12,1.3-17.9,6.2-17.9,14.8c0,4.4,1.5,8,4.5,10.4c3.1,2.5,7.2,3.7,12.5,3.7
				c7.1,0,12.3-2.5,15.5-7.6c0.3,2.4,1.1,4.1,2.6,5.2c1.5,1.1,3.7,1.6,6.7,1.6c1.7,0,3.1-0.1,4.5-0.3v-7.1H231.6z M206.2,137.7
				c-3,0-5.2-0.6-6.7-1.8c-1.5-1.3-2.2-3.1-2.2-5.4c0-2.2,0.7-4,2.3-5.3c1.5-1.3,4.1-2.1,7.7-2.6l6.7-0.7c2.8-0.3,4.7-0.9,5.9-1.9v5
				c0,4.1-1.3,7.2-3.9,9.4C213.4,136.6,210.1,137.7,206.2,137.7z"/>
			<path class="st0" d="M260.3,95.4c-6.9,0-11.9,3.1-14.9,9.2v-8.5h-8.9v47.7h9.2V118c0-4.4,1.3-7.8,3.9-10.2
				c2.6-2.3,6.2-3.5,11-3.5h2.3v-8.8C262.6,95.5,261.6,95.4,260.3,95.4z"/>
			<path class="st0" d="M295.6,145.3c7.6,0,14.1-2.2,19.7-6.8c5.5-4.4,8.7-10.8,9.5-19.1h-9.9c-0.7,5.5-3,9.8-6.6,12.7
				c-3.8,3-8,4.3-12.8,4.3c-6.4,0-11.5-2.2-15.2-6.8c-3.8-4.6-5.6-10.8-5.6-18.8c0-7.9,1.8-14.1,5.6-18.7c3.7-4.6,8.8-6.9,15.2-6.9
				c4.7,0,8.7,1.3,12,3.7s5.5,6,6.8,10.8h10c-1.5-7.7-4.9-13.5-10.1-17.5c-5.3-3.9-11.6-5.8-18.8-5.8c-9.2,0-16.7,3.1-22.5,9.3
				c-5.7,6.3-8.6,14.6-8.6,25.1c0,10.5,2.9,19,8.7,25.1C278.9,142.3,286.3,145.3,295.6,145.3z"/>
			<path class="st0" d="M367.4,138.1c4.3-4.4,6.5-10.5,6.5-18.1s-2.2-13.7-6.5-18.2c-4.3-4.4-10.1-6.8-17.1-6.8
				c-7.1,0-12.9,2.3-17.1,6.8c-4.4,4.6-6.6,10.6-6.6,18.2s2.1,13.6,6.6,18.1c4.3,4.6,10.1,6.8,17.1,6.8
				C357.4,145,363,142.7,367.4,138.1z M350.3,137c-4.3,0-7.8-1.5-10.3-4.5c-2.6-3-3.8-7.1-3.8-12.5c0-5.3,1.2-9.4,3.8-12.5
				c2.5-3,5.9-4.5,10.3-4.5c4.3,0,7.7,1.6,10.2,4.5c2.5,3.1,3.8,7.2,3.8,12.5c0,5.4-1.3,9.5-3.8,12.5C358,135.5,354.6,137,350.3,137
				z"/>
			<path class="st0" d="M413.4,102.6c-3.6-5-8.8-7.6-15.4-7.6c-6.7,0-12,2.3-15.9,6.8c-4,4.5-5.9,10.6-5.9,18.2
				c0,7.7,1.9,13.8,5.9,18.2c3.9,4.5,9.2,6.8,15.9,6.8c6.9,0,12.2-2.7,15.8-8.1v7h8.9V78h-9.2V102.6z M389.6,132.7
				c-2.6-2.9-3.8-6.9-3.8-12.3c0-5.4,1.2-9.6,3.8-12.8c2.5-3.1,5.9-4.6,10.2-4.6c4.3,0,7.8,1.5,10.3,4.4c2.4,3.1,3.7,7.2,3.7,12.6
				c0,5.5-1.3,9.6-3.7,12.5c-2.5,3.1-5.9,4.5-10.3,4.5C395.5,137,392.1,135.6,389.6,132.7z"/>
			<path class="st0" d="M472.5,120.4c0-7.4-2-13.4-6-18.2c-4.1-4.7-9.6-7.1-16.6-7.1c-6.8,0-12.2,2.3-16.4,6.8
				c-4.3,4.6-6.3,10.6-6.3,18.1c0,7.6,2,13.6,6.3,18.1c4.2,4.6,9.7,6.8,16.6,6.8c5.5,0,10.1-1.4,13.8-4.2c3.7-2.8,6.3-6.7,7.6-11.6
				H462c-1.8,5.4-5.8,8-11.8,8c-4.1,0-7.2-1.1-9.5-3.5c-2.4-2.4-3.8-5.9-4.2-10.6h36V120.4z M449.8,102.8c3.7,0,6.7,1.2,9,3.6
				s3.7,5.5,4.2,9.3h-26.4c0.6-4.2,1.9-7.4,4.3-9.6C443.2,103.9,446.1,102.8,449.8,102.8z"/>
		</g>
		<path id="Asterisk_6_" class="st0" d="M495.7,93.6l0.1-0.3l9.1-1l6.4-2.1l-2.5-7.8l-6.4,2.1l-8,4.5l-0.3-0.2l1.8-9v-6.7h-8.1v6.7
			l1.8,9l-0.3,0.2l-8-4.5l-6.4-2.1l-2.5,7.8l6.4,2.1l9.1,1l0.1,0.3l-6.8,6.2l-3.9,5.4l6.6,4.8l4-5.4l3.8-8.4h0.4l3.8,8.4l4,5.4
			l6.6-4.8l-3.9-5.4L495.7,93.6z"/>
		<rect id="Stroke_6_" x="522" y="46.3" class="st0" width="2.8" height="105.4"/>
	</g>
</g>
<g id="Colors_Specs">
</g>
</svg>
